<?xml version="1.0" encoding="UTF-8"?>
<svg id="Calque_2" data-name="Calque 2" xmlns="http://www.w3.org/2000/svg" viewBox="0 0 973.95 193.03">
  <defs>
    <style>
      .cls-1 {
        fill: #b7a585;
      }

      .cls-2 {
        fill: #fff;
      }
    </style>
  </defs>
  <g id="Calque_1-2" data-name="Calque 1">
    <g>
      <g>
        <g>
          <path class="cls-2" d="M265.13,50.1v6.07h-14.28v42.21h-6.35v-42.21h-14.21v-6.07h34.84Z"/>
          <path class="cls-2" d="M306.5,50.1h6.35v48.28h-6.35v-21.73h-23.45v21.73h-6.41v-48.28h6.41v20.49h23.45v-20.49Z"/>
          <path class="cls-2" d="M334.76,92.31h22.42v6.07h-28.83v-48.28h28.49v6.07h-22.07v14.83h20.35v6h-20.35v15.31Z"/>
          <path class="cls-1" d="M415.45,50.1h6.35v48.28h-6.35v-21.73h-23.45v21.73h-6.41v-48.28h6.41v20.49h23.45v-20.49Z"/>
          <path class="cls-2" d="M436.67,50.1h6.41v31.8c0,6.83,4.21,11.11,11.72,11.11s11.73-4.28,11.73-11.11v-31.8h6.35v32.07c0,5.17-1.66,9.38-5.04,12.49-3.38,3.1-7.73,4.62-13.04,4.62s-9.73-1.52-13.1-4.62c-3.38-3.11-5.03-7.31-5.03-12.49v-32.07Z"/>
          <path class="cls-2" d="M533.01,50.1v48.28h-6.35v-37.73l-15.8,26.28h-.83l-15.8-26.22v37.66h-6.41v-48.28h7.24l15.38,25.52,15.31-25.52h7.25Z"/>
          <path class="cls-2" d="M580.31,98.38l-3.93-10.83h-21.73l-3.93,10.83h-6.83l18-48.28h7.25l18,48.28h-6.83ZM556.85,81.55h17.31l-8.69-23.8-8.62,23.8Z"/>
          <path class="cls-2" d="M628.02,50.1h6.41v48.28h-5.17l-24.83-36.08v36.08h-6.41v-48.28h5.17l24.83,36v-36Z"/>
          <path class="cls-2" d="M682.97,50.1c4.49,0,8.14,1.52,11.11,4.48,2.96,2.97,4.48,6.62,4.48,11.04s-1.52,8.07-4.48,11.04-6.62,4.48-11.11,4.48h-11.1v17.25h-6.41v-48.28h17.52ZM682.97,75.14c2.69,0,4.9-.9,6.62-2.69,1.73-1.86,2.62-4.14,2.62-6.83,0-5.52-3.93-9.52-9.24-9.52h-11.1v19.04h11.1Z"/>
          <path class="cls-2" d="M738.2,98.38l-3.93-10.83h-21.73l-3.93,10.83h-6.83l18-48.28h7.24l18.01,48.28h-6.83ZM714.75,81.55h17.31l-8.69-23.8-8.62,23.8Z"/>
          <path class="cls-2" d="M784.54,98.38l-10.83-18.49h-11.38v18.49h-6.41v-48.28h19.31c4.14,0,7.66,1.45,10.62,4.41,2.97,2.9,4.41,6.41,4.41,10.55,0,3.11-.96,6-2.83,8.55s-4.21,4.41-7.17,5.45l11.38,19.31h-7.1ZM762.33,56.1v18h12.9c2.41,0,4.41-.9,6.07-2.62,1.72-1.8,2.55-3.93,2.55-6.42s-.83-4.62-2.55-6.35c-1.66-1.72-3.66-2.62-6.07-2.62h-12.9Z"/>
          <path class="cls-2" d="M833.08,50.1v6.07h-14.28v42.21h-6.35v-42.21h-14.21v-6.07h34.83Z"/>
          <path class="cls-2" d="M874.59,50.1h6.42v48.28h-5.17l-24.83-36.08v36.08h-6.41v-48.28h5.17l24.83,36v-36Z"/>
          <path class="cls-2" d="M902.92,92.31h22.42v6.07h-28.83v-48.28h28.49v6.07h-22.07v14.83h20.35v6h-20.35v15.31Z"/>
          <path class="cls-2" d="M966.84,98.38l-10.83-18.49h-11.38v18.49h-6.41v-48.28h19.31c4.14,0,7.65,1.45,10.62,4.41,2.97,2.9,4.41,6.41,4.41,10.55,0,3.11-.96,6-2.83,8.55s-4.21,4.41-7.17,5.45l11.38,19.31h-7.11ZM944.63,56.1v18h12.9c2.42,0,4.41-.9,6.07-2.62,1.72-1.8,2.55-3.93,2.55-6.42s-.83-4.62-2.55-6.35c-1.66-1.72-3.65-2.62-6.07-2.62h-12.9Z"/>
        </g>
        <g>
          <path class="cls-2" d="M246.84,140.47h10.77v2.09h-12.98v-22.17h12.83v2.09h-10.61v7.86h9.82v2.09h-9.82v8.05Z"/>
          <path class="cls-2" d="M289.25,142.55h-2.53l-6.02-9.47-6.02,9.47h-2.53l7.28-11.43-6.81-10.73h2.5l5.57,8.74,5.57-8.74h2.5l-6.81,10.73,7.28,11.43Z"/>
          <path class="cls-2" d="M307.29,140.47h10.77v2.09h-12.98v-22.17h12.83v2.09h-10.61v7.86h9.82v2.09h-9.82v8.05Z"/>
          <path class="cls-2" d="M336.38,139.61c-2.19-2.22-3.29-4.94-3.29-8.14s1.11-5.92,3.29-8.14c2.19-2.22,4.97-3.33,8.33-3.33,4.08,0,7.73,2.12,9.6,5.44l-1.96,1.14c-1.4-2.69-4.34-4.43-7.64-4.43-2.76,0-5.03.89-6.78,2.69-1.74,1.81-2.63,3.99-2.63,6.62s.89,4.81,2.63,6.62c1.74,1.81,4.02,2.69,6.78,2.69,3.29,0,6.24-1.74,7.64-4.43l1.96,1.11c-1.81,3.33-5.51,5.48-9.6,5.48-3.36,0-6.14-1.11-8.33-3.33Z"/>
          <path class="cls-2" d="M370.28,120.39h2.22v14.63c0,3.55,2.22,5.76,6.01,5.76s6.02-2.22,6.02-5.76v-14.63h2.22v14.63c0,2.41-.76,4.34-2.28,5.76-1.52,1.43-3.52,2.15-5.96,2.15s-4.43-.73-5.95-2.15c-1.52-1.42-2.28-3.36-2.28-5.76v-14.63Z"/>
          <path class="cls-2" d="M418.08,120.39v2.09h-6.81v20.08h-2.22v-20.08h-6.81v-2.09h15.84Z"/>
          <path class="cls-2" d="M433.9,120.39h2.22v22.17h-2.22v-22.17Z"/>
          <path class="cls-2" d="M459.79,142.55l-8.17-22.17h2.41l6.9,19.22,6.91-19.22h2.41l-8.17,22.17h-2.28Z"/>
          <path class="cls-2" d="M487.97,140.47h10.77v2.09h-12.99v-22.17h12.83v2.09h-10.61v7.86h9.82v2.09h-9.82v8.05Z"/>
          <path class="cls-1" d="M535.76,120.39h2.22v22.17h-2.22v-22.17Z"/>
          <path class="cls-1" d="M569.95,120.39h2.22v22.17h-1.9l-12.35-18.05v18.05h-2.22v-22.17h1.9l12.35,18.05v-18.05Z"/>
          <path class="cls-1" d="M603.82,120.39v2.09h-6.81v20.08h-2.22v-20.08h-6.81v-2.09h15.84Z"/>
          <path class="cls-1" d="M621.86,140.47h10.77v2.09h-12.98v-22.17h12.83v2.09h-10.61v7.86h9.82v2.09h-9.82v8.05Z"/>
          <path class="cls-1" d="M662.7,142.55l-5.19-8.87h-6.21v8.87h-2.22v-22.17h8.87c1.84,0,3.39.66,4.69,1.96s1.96,2.85,1.96,4.69c0,1.49-.44,2.85-1.36,4.02-.89,1.17-2.03,1.93-3.42,2.34l5.42,9.15h-2.53ZM651.29,122.48v9.12h6.65c1.24,0,2.28-.45,3.14-1.33.86-.92,1.3-2,1.3-3.23s-.44-2.34-1.3-3.23c-.86-.89-1.9-1.33-3.14-1.33h-6.65Z"/>
          <path class="cls-1" d="M681.05,120.39h2.22v22.17h-2.22v-22.17Z"/>
          <path class="cls-1" d="M721.25,120.39v22.17h-2.22v-18.81l-7.76,12.98h-.31l-7.76-12.98v18.81h-2.22v-22.17h2.76l7.38,12.35,7.38-12.35h2.75Z"/>
        </g>
      </g>
      <g>
        <path class="cls-2" d="M193.03,193.03H0V0h193.03v193.03ZM2.48,190.55h188.07V2.48H2.48v188.07Z"/>
        <g>
          <path class="cls-1" d="M47.25,100.94c0-11.61.01-21.99,0-22,0-8.17,1.33-10.84,4.63-11.84v-1.52h-18.81v1.52c3.24.97,4.63,3.59,4.63,11.35l.03,53.86c0,9.55-1.16,12.22-4.66,13.27v1.52h18.81v-1.52c-3.5-1.04-4.66-3.73-4.66-13.27,0,0,0-12.62.02-25.59h12.87v-5.79h-12.87Z"/>
          <path class="cls-1" d="M159.95,67.1v-1.52h-18.81v1.52c3.24.97,4.63,3.59,4.63,11.35v22.49s-13.2,0-13.2,0v5.79h13.22l.02,25.59c0,9.55-1.16,12.22-4.66,13.27v1.52h18.81v-1.52c-3.5-1.04-4.66-3.73-4.66-13.27,0,0,.04-53.35.03-53.38,0-8.17,1.33-10.84,4.63-11.83Z"/>
          <g>
            <path class="cls-2" d="M73.98,59.28c0-8.17,1.33-10.84,4.63-11.84v-1.52h-18.81v1.52c3.24.97,4.63,3.59,4.63,11.35l.03,53.86c0,9.55-1.16,12.22-4.66,13.27v1.51h18.81v-1.51c-3.5-1.05-4.66-3.73-4.66-13.27,0,0,0-12.43.02-25.28h13.23v-5.79h-13.23c0-11.73.01-22.29,0-22.3Z"/>
            <path class="cls-2" d="M132.59,47.45v-1.52h-18.81v1.52c3.24.97,4.63,3.59,4.63,11.35v22.79s-12.48,0-12.48,0v5.79h12.49l.02,25.28c0,9.55-1.16,12.22-4.66,13.27v1.51h18.81v-1.51c-3.5-1.05-4.66-3.73-4.66-13.27,0,0,.04-53.35.02-53.38,0-8.17,1.33-10.84,4.64-11.83Z"/>
          </g>
          <path class="cls-1" d="M101.34,100.94c0-11.61.01-21.99,0-22,0-8.17,1.33-10.84,4.63-11.84v-1.52h-18.92v1.52c3.24.97,4.63,3.59,4.63,11.35v22.49s-12.86,0-12.86,0v5.79h12.87l.02,25.59c0,9.55-1.16,12.22-4.66,13.27v1.52h18.92v-1.52c-3.5-1.04-4.66-3.73-4.66-13.27,0,0,0-12.62.02-25.59h12.52v-5.79h-12.51Z"/>
        </g>
      </g>
    </g>
  </g>
</svg>