<?xml version="1.0" encoding="UTF-8"?>
<svg id="Calque_2" data-name="Calque 2" xmlns="http://www.w3.org/2000/svg" viewBox="0 0 583.05 230.19">
  <defs>
    <style>
      .cls-1 {
        fill: #b7a585;
      }

      .cls-2 {
        fill: #fff;
      }
    </style>
  </defs>
  <g id="Calque_1-2" data-name="Calque 1">
    <g>
      <g>
        <g>
          <path class="cls-2" d="M133.05,214.02v15.9h-1.59v-13.49l-5.56,9.31h-.23l-5.56-9.31v13.49h-1.59v-15.9h1.98l5.29,8.86,5.29-8.86h1.98Z"/>
          <path class="cls-2" d="M156.34,229.92l-1.48-3.91h-7.54l-1.48,3.91h-1.68l6.11-15.9h1.63l6.11,15.9h-1.68ZM147.89,224.51h6.4l-3.2-8.52-3.2,8.52Z"/>
          <path class="cls-2" d="M175.27,214.02c2.16,0,3.95.77,5.36,2.32,1.43,1.52,2.14,3.41,2.14,5.63s-.71,4.11-2.14,5.66c-1.41,1.52-3.2,2.29-5.36,2.29h-6.14v-15.9h6.14ZM175.27,228.42c1.75,0,3.16-.61,4.27-1.86,1.11-1.25,1.68-2.77,1.68-4.59s-.57-3.34-1.68-4.59c-1.11-1.25-2.52-1.86-4.27-1.86h-4.54v12.9h4.54Z"/>
          <path class="cls-2" d="M196.16,228.42h7.72v1.5h-9.32v-15.9h9.2v1.5h-7.61v5.63h7.04v1.5h-7.04v5.77Z"/>
          <path class="cls-2" d="M230.44,214.02h1.59v15.9h-1.59v-15.9Z"/>
          <path class="cls-2" d="M254.96,214.02h1.59v15.9h-1.36l-8.86-12.95v12.95h-1.59v-15.9h1.36l8.86,12.95v-12.95Z"/>
          <path class="cls-2" d="M298.55,214.02v15.9h-1.59v-13.49l-5.56,9.31h-.22l-5.56-9.31v13.49h-1.59v-15.9h1.98l5.29,8.86,5.3-8.86h1.97Z"/>
          <path class="cls-2" d="M321.85,229.92l-1.48-3.91h-7.54l-1.48,3.91h-1.68l6.11-15.9h1.64l6.11,15.9h-1.68ZM313.4,224.51h6.41l-3.21-8.52-3.2,8.52Z"/>
          <path class="cls-2" d="M344.41,229.92l-3.72-6.36h-4.45v6.36h-1.59v-15.9h6.36c1.32,0,2.43.48,3.36,1.41.93.93,1.41,2.05,1.41,3.36,0,1.07-.32,2.04-.98,2.89-.64.84-1.45,1.38-2.45,1.68l3.89,6.57h-1.82ZM336.24,215.52v6.54h4.77c.89,0,1.63-.32,2.25-.96.61-.66.93-1.43.93-2.32s-.32-1.68-.93-2.32-1.36-.95-2.25-.95h-4.77Z"/>
          <path class="cls-2" d="M356.44,226.31l1.36-.79c.57,1.98,2.14,3.13,4.57,3.13s3.75-1.13,3.75-2.86c0-.84-.29-1.45-.91-1.89-.61-.43-1.61-.86-3-1.32-1.66-.54-2.75-.98-3.27-1.31-1.2-.73-1.82-1.77-1.82-3.16s.48-2.41,1.41-3.18c.93-.79,2.09-1.18,3.47-1.18,2.48,0,4.36,1.43,5.25,3.43l-1.34.75c-.73-1.75-2.02-2.64-3.91-2.64s-3.29,1.02-3.29,2.75c0,.79.27,1.39.82,1.77.55.38,1.45.79,2.7,1.2l1.23.43c.25.07.61.2,1.09.41.48.18.84.34,1.07.5.45.27,1.25.82,1.52,1.34.29.48.57,1.23.57,2.04,0,1.34-.5,2.43-1.48,3.25-.98.79-2.27,1.2-3.88,1.2-2.91,0-5.09-1.45-5.91-3.88Z"/>
          <path class="cls-2" d="M380.98,228.42h7.72v1.5h-9.31v-15.9h9.2v1.5h-7.61v5.63h7.04v1.5h-7.04v5.77Z"/>
          <path class="cls-2" d="M400.51,214.02h1.59v15.9h-1.59v-15.9Z"/>
          <path class="cls-2" d="M416.4,228.42h7.27v1.5h-8.86v-15.9h1.59v14.4Z"/>
          <path class="cls-2" d="M436.61,228.42h7.27v1.5h-8.86v-15.9h1.59v14.4Z"/>
          <path class="cls-2" d="M456.81,228.42h7.72v1.5h-9.31v-15.9h9.2v1.5h-7.61v5.63h7.04v1.5h-7.04v5.77Z"/>
        </g>
        <g>
          <path class="cls-2" d="M351.2,119.35h-119.35V0h119.35v119.35ZM233.38,117.81h116.28V1.54h-116.28v116.28Z"/>
          <g>
            <path class="cls-1" d="M261.06,62.41c0-7.18,0-13.59,0-13.6,0-5.05.82-6.7,2.86-7.32v-.94h-11.63v.94c2,.6,2.86,2.22,2.86,7.02l.02,33.3c0,5.9-.72,7.56-2.88,8.21v.94h11.63v-.94c-2.16-.65-2.88-2.3-2.88-8.21,0,0,0-7.8.01-15.82h7.96v-3.58h-7.96Z"/>
            <path class="cls-1" d="M330.74,41.49v-.94h-11.63v.94c2,.6,2.86,2.22,2.86,7.02v13.9s-8.16,0-8.16,0v3.58h8.17v15.82c.01,5.9-.71,7.56-2.87,8.21v.94h11.63v-.94c-2.16-.65-2.88-2.3-2.88-8.21,0,0,.02-32.99.02-33,0-5.05.82-6.7,2.87-7.32Z"/>
            <g>
              <path class="cls-2" d="M277.59,36.65c0-5.05.82-6.7,2.86-7.32v-.94h-11.63v.94c2,.6,2.86,2.22,2.86,7.02l.02,33.3c0,5.9-.72,7.56-2.88,8.21v.94h11.63v-.94c-2.16-.65-2.88-2.31-2.88-8.21,0,0,0-7.68.01-15.63h8.18v-3.58h-8.18c0-7.25,0-13.78,0-13.79Z"/>
              <path class="cls-2" d="M313.83,29.34v-.94h-11.63v.94c2,.6,2.86,2.22,2.86,7.02v14.09s-7.71,0-7.71,0v3.58h7.72v15.63c.01,5.9-.71,7.56-2.87,8.21v.94h11.63v-.94c-2.16-.65-2.88-2.31-2.88-8.21,0,0,.02-32.99.01-33,0-5.05.82-6.7,2.87-7.32Z"/>
            </g>
            <path class="cls-1" d="M294.5,62.41c0-7.18,0-13.59,0-13.6,0-5.05.82-6.7,2.86-7.32v-.94h-11.7v.94c2,.6,2.86,2.22,2.86,7.02v13.9s-7.95,0-7.95,0v3.58h7.96v15.82c.01,5.9-.71,7.56-2.87,8.21v.94h11.7v-.94c-2.16-.65-2.88-2.3-2.88-8.21,0,0,0-7.8.01-15.82h7.74v-3.58h-7.74Z"/>
          </g>
        </g>
      </g>
      <g>
        <path class="cls-2" d="M27.03,156.36v5.83h-10.44v31.27h-6.09v-31.27H0v-5.83h27.03Z"/>
        <path class="cls-2" d="M57.5,156.36h6.09v37.1h-6.09v-16.06h-15.9v16.06h-6.09v-37.1h6.09v15.21h15.9v-15.21Z"/>
        <path class="cls-2" d="M81.08,187.63h16.43v5.83h-22.52v-37.1h22.26v5.83h-16.16v9.64h14.84v5.78h-14.84v10.02Z"/>
        <path class="cls-1" d="M146.26,156.36h6.09v37.1h-6.09v-16.06h-15.9v16.06h-6.09v-37.1h6.09v15.21h15.9v-15.21Z"/>
        <path class="cls-2" d="M163.38,156.36h6.09v24.43c0,4.5,2.65,7.42,7.95,7.42s7.95-2.91,7.95-7.42v-24.43h6.09v24.8c0,3.97-1.32,7.1-3.92,9.49-2.6,2.33-5.99,3.5-10.12,3.5s-7.52-1.17-10.12-3.5c-2.6-2.39-3.92-5.51-3.92-9.49v-24.8Z"/>
        <path class="cls-2" d="M237.94,156.36v37.1h-6.09v-26.44l-11.29,18.65h-.74l-11.29-18.71v26.5h-6.09v-37.1h6.57l11.18,18.55,11.23-18.55h6.52Z"/>
        <path class="cls-2" d="M273.5,193.46l-2.6-7.47h-15.79l-2.6,7.47h-6.62l13.46-37.1h7.31l13.41,37.1h-6.57ZM257.13,180.26h11.76l-5.88-16.75-5.88,16.75Z"/>
        <path class="cls-2" d="M310.28,156.36h6.09v37.1h-4.77l-17.49-25.17v25.17h-6.09v-37.1h4.77l17.49,25.17v-25.17Z"/>
        <path class="cls-2" d="M358.67,156.36c3.5,0,6.41,1.17,8.74,3.5,2.38,2.33,3.55,5.25,3.55,8.69s-1.17,6.31-3.55,8.69c-2.33,2.33-5.25,3.5-8.74,3.5h-7.58v12.72h-6.09v-37.1h13.67ZM358.67,175.02c3.6,0,6.2-2.7,6.2-6.47s-2.6-6.47-6.2-6.47h-7.58v12.93h7.58Z"/>
        <path class="cls-2" d="M400.69,193.46l-2.6-7.47h-15.79l-2.6,7.47h-6.62l13.46-37.1h7.31l13.41,37.1h-6.57ZM384.32,180.26h11.76l-5.88-16.75-5.88,16.75Z"/>
        <path class="cls-2" d="M436.36,193.46l-7.84-13.51h-7.21v13.51h-6.09v-37.1h14.84c3.34,0,6.15,1.17,8.43,3.5,2.33,2.28,3.5,5.09,3.5,8.43,0,4.72-2.97,9.01-7.37,10.76l8.43,14.41h-6.68ZM421.31,162.09v12.4h8.74c3.23,0,5.83-2.75,5.83-6.2s-2.6-6.2-5.83-6.2h-8.74Z"/>
        <path class="cls-2" d="M474.94,156.36v5.83h-10.44v31.27h-6.09v-31.27h-10.49v-5.83h27.03Z"/>
        <path class="cls-2" d="M505.67,156.36h6.09v37.1h-4.77l-17.49-25.17v25.17h-6.09v-37.1h4.77l17.49,25.17v-25.17Z"/>
        <path class="cls-2" d="M529.26,187.63h16.43v5.83h-22.52v-37.1h22.26v5.83h-16.16v9.64h14.84v5.78h-14.84v10.02Z"/>
        <path class="cls-2" d="M576.37,193.46l-7.84-13.51h-7.21v13.51h-6.09v-37.1h14.84c3.34,0,6.15,1.17,8.43,3.5,2.33,2.28,3.5,5.09,3.5,8.43,0,4.72-2.97,9.01-7.37,10.76l8.43,14.41h-6.68ZM561.32,162.09v12.4h8.74c3.23,0,5.83-2.75,5.83-6.2s-2.6-6.2-5.83-6.2h-8.74Z"/>
      </g>
    </g>
  </g>
</svg>